<svg width="307" height="54" viewBox="0 0 307 54" fill="none" xmlns="http://www.w3.org/2000/svg">
<g filter="url(#filter0_d_2872_70)">
<path d="M100.674 7.43995V-4.91142e-05H107.994V7.43995H100.674ZM107.87 7.43995V-4.91142e-05H115.19V7.43995H107.87ZM115.065 7.43995V-4.91142e-05H122.385V7.43995H115.065ZM0 6.55995H7.2V21.44H0V6.55995ZM7.19531 6.55995H14.3953V21.44H7.19531V6.55995ZM14.3906 6.55995H21.5906V21.44H14.3906V6.55995ZM21.5859 6.55995H28.7859V21.44H21.5859V6.55995ZM28.7212 21.44V14H36.0413V21.44H28.7212ZM50.3072 21.44V14H57.6272V21.44H50.3072ZM57.5025 21.44V14H64.8225V21.44H57.5025ZM71.8931 21.44V14H79.2131V21.44H71.8931ZM79.0884 21.44V14H86.4084V21.44H79.0884ZM93.4791 21.44V14H100.799V21.44H93.4791ZM100.674 21.44V14H107.994V21.44H100.674ZM115.065 21.44V14H122.385V21.44H115.065ZM122.26 21.44V14H129.58V21.44H122.26ZM143.846 21.44V14H151.166V21.44H143.846ZM151.042 21.44V14H158.362V21.44H151.042ZM158.237 21.44V14H165.557V21.44H158.237ZM165.432 21.44V14H172.752V21.44H165.432ZM179.823 21.44V14H187.143V21.44H179.823ZM187.018 21.44V14H194.338V21.44H187.018ZM201.409 21.44V14H208.729V21.44H201.409ZM208.604 21.44V14H215.924V21.44H208.604ZM230.19 21.44V14H237.51V21.44H230.19ZM237.385 21.44V14H244.705V21.44H237.385ZM244.581 21.44V14H251.901V21.44H244.581ZM266.167 21.44V14H273.487V21.44H266.167ZM273.362 21.44V14H280.682V21.44H273.362ZM280.557 21.44V14H287.877V21.44H280.557ZM287.752 21.44V14H295.073V21.44H287.752ZM0 20.56H7.2V35.44H0V20.56ZM7.19531 20.56H14.3953V35.44H7.19531V20.56ZM28.7812 20.56H35.9813V35.44H28.7812V20.56ZM35.9766 20.56H43.1766V35.44H35.9766V20.56ZM50.3672 20.56H57.5672V35.44H50.3672V20.56ZM57.5625 20.56H64.7625V35.44H57.5625V20.56ZM64.6978 35.44V28H72.0178V35.44H64.6978ZM71.9531 20.56H79.1531V35.44H71.9531V20.56ZM79.1484 20.56H86.3484V35.44H79.1484V20.56ZM93.5391 20.56H100.739V35.44H93.5391V20.56ZM100.734 20.56H107.934V35.44H100.734V20.56ZM115.125 20.56H122.325V35.44H115.125V20.56ZM122.32 20.56H129.52V35.44H122.32V20.56ZM136.711 20.56H143.911V35.44H136.711V20.56ZM143.906 20.56H151.106V35.44H143.906V20.56ZM151.102 20.56H158.302V35.44H151.102V20.56ZM158.237 35.44V28H165.557V35.44H158.237ZM165.432 35.44V28H172.752V35.44H165.432ZM179.883 20.56H187.083V35.44H179.883V20.56ZM187.078 20.56H194.278V35.44H187.078V20.56ZM194.213 35.44V28H201.533V35.44H194.213ZM201.469 20.56H208.669V35.44H201.469V20.56ZM208.664 20.56H215.864V35.44H208.664V20.56ZM223.055 20.56H230.255V35.44H223.055V20.56ZM230.25 20.56H237.45V35.44H230.25V20.56ZM237.385 28V20.56H244.705V28H237.385ZM244.641 20.56H251.841V35.44H244.641V20.56ZM251.836 20.56H259.036V35.44H251.836V20.56ZM266.227 20.56H273.427V35.44H266.227V20.56ZM273.422 20.56H280.622V35.44H273.422V20.56ZM280.557 35.44V28H287.877V35.44H280.557ZM287.812 20.56H295.013V35.44H287.812V20.56ZM294.948 35.44V28H302.268V35.44H294.948ZM0 34.56H7.2V49.44H0V34.56ZM7.19531 34.56H14.3953V49.44H7.19531V34.56ZM14.3906 34.56H21.5906V49.44H14.3906V34.56ZM21.5859 34.56H28.7859V49.44H21.5859V34.56ZM28.7212 42V34.56H36.0413V42H28.7212ZM50.3672 34.56H57.5672V49.44H50.3672V34.56ZM57.5625 34.56H64.7625V49.44H57.5625V34.56ZM71.9531 34.56H79.1531V49.44H71.9531V34.56ZM79.1484 34.56H86.3484V49.44H79.1484V34.56ZM93.4791 42V34.56H100.799V42H93.4791ZM100.734 34.56H107.934V49.44H100.734V34.56ZM107.93 34.56H115.13V49.44H107.93V34.56ZM115.125 34.56H122.325V49.44H115.125V34.56ZM122.26 42V34.56H129.58V42H122.26ZM136.651 49.44V42H143.971V49.44H136.651ZM143.846 49.44V42H151.166V49.44H143.846ZM151.102 34.56H158.302V49.44H151.102V34.56ZM158.297 34.56H165.497V49.44H158.297V34.56ZM165.432 42V34.56H172.752V42H165.432ZM179.883 34.56H187.083V49.44H179.883V34.56ZM187.078 34.56H194.278V49.44H187.078V34.56ZM201.469 34.56H208.669V49.44H201.469V34.56ZM208.664 34.56H215.864V49.44H208.664V34.56ZM222.995 42V34.56H230.315V42H222.995ZM230.25 34.56H237.45V49.44H230.25V34.56ZM237.445 34.56H244.645V49.44H237.445V34.56ZM244.641 34.56H251.841V49.44H244.641V34.56ZM251.776 42V34.56H259.096V42H251.776ZM266.227 34.56H273.427V49.44H266.227V34.56ZM273.422 34.56H280.622V49.44H273.422V34.56ZM287.812 34.56H295.013V49.44H287.812V34.56ZM295.008 34.56H302.208V49.44H295.008V34.56Z" fill="#3A3A3A"/>
</g>
<defs>
<filter id="filter0_d_2872_70" x="0" y="0" width="306.268" height="53.4399" filterUnits="userSpaceOnUse" color-interpolation-filters="sRGB">
<feFlood flood-opacity="0" result="BackgroundImageFix"/>
<feColorMatrix in="SourceAlpha" type="matrix" values="0 0 0 0 0 0 0 0 0 0 0 0 0 0 0 0 0 0 127 0" result="hardAlpha"/>
<feOffset dx="4" dy="4"/>
<feComposite in2="hardAlpha" operator="out"/>
<feColorMatrix type="matrix" values="0 0 0 0 0.619608 0 0 0 0 0.631373 0 0 0 0 0.670588 0 0 0 1 0"/>
<feBlend mode="normal" in2="BackgroundImageFix" result="effect1_dropShadow_2872_70"/>
<feBlend mode="normal" in="SourceGraphic" in2="effect1_dropShadow_2872_70" result="shape"/>
</filter>
</defs>
</svg>
